<?xml version="1.0" standalone="no"?>
<!DOCTYPE svg PUBLIC "-//W3C//DTD SVG 20010904//EN"
    "http://www.w3.org/TR/2001/REC-SVG-20010904/DTD/svg10.dtd">
<svg version="1.0" xmlns="http://www.w3.org/2000/svg"
    width="98.000000pt" height="98.000000pt" viewBox="0 0 98.000000 98.000000"
    preserveAspectRatio="xMidYMid meet">
    <metadata>
        Created by potrace 1.16, written by Peter Selinger 2001-2019
    </metadata>
    <g transform="translate(0.000000,98.000000) scale(0.100000,-0.100000)"
        fill="#000000" stroke="none">
        <path d="M122 589 c-17 -6 -22 -15 -20 -31 l3 -23 240 0 c229 0 240 1 243 19
8 41 -20 46 -237 45 -113 0 -216 -4 -229 -10z"/>
        <path d="M105 271 c-3 -10 -3 -26 1 -35 6 -14 41 -16 364 -16 332 0 358 1 362
18 2 9 2 25 0 34 -3 17 -29 18 -362 18 -341 0 -359 -1 -365 -19z"/>
    </g>
</svg>
