<?xml version="1.0" standalone="no"?>
<!DOCTYPE svg PUBLIC "-//W3C//DTD SVG 20010904//EN"
 "http://www.w3.org/TR/2001/REC-SVG-20010904/DTD/svg10.dtd">
<svg version="1.0" xmlns="http://www.w3.org/2000/svg"
 width="1920.000000pt" height="1080.000000pt" viewBox="0 0 1920.000000 1080.000000"
 preserveAspectRatio="xMidYMid meet">
<metadata>
Created by potrace 1.16, written by Peter Selinger 2001-2019
</metadata>
<g transform="translate(0.000000,1080.000000) scale(0.100000,-0.100000)"
fill="#ffffff" stroke="none">
<path d="M13045 6885 c-148 -19 -271 -34 -272 -34 -2 -1 -3 -93 -3 -206 l0
-205 -125 0 -125 0 0 -235 0 -235 124 0 125 0 3 -377 c4 -319 7 -387 21 -438
79 -277 279 -408 597 -391 155 8 360 68 376 110 4 11 -101 428 -112 445 -2 2
-24 -7 -49 -19 -26 -13 -74 -25 -108 -27 -54 -4 -67 -2 -97 19 -63 43 -65 51
-68 381 l-3 297 175 0 176 0 0 235 0 235 -171 2 -170 3 -2 234 c-1 147 -6 235
-12 237 -5 1 -131 -13 -280 -31z"/>
<path d="M4991 6699 c-7 -12 -44 -64 -81 -115 l-69 -92 -76 24 c-269 85 -593
25 -816 -153 -126 -101 -222 -248 -271 -419 -20 -70 -23 -100 -22 -259 0 -166
2 -187 27 -268 34 -109 71 -183 133 -266 114 -151 304 -258 527 -296 l37 -6 0
48 c0 186 216 254 298 93 18 -36 22 -61 22 -131 l0 -87 88 -4 c103 -5 141 -22
178 -78 21 -31 27 -53 27 -93 0 -118 -72 -177 -217 -177 l-74 0 -4 -104 c-2
-87 -7 -109 -24 -133 -78 -105 -214 -97 -271 17 -19 36 -23 61 -23 132 l0 88
-77 0 c-93 0 -149 22 -184 71 -20 28 -24 46 -23 99 0 36 4 75 8 88 l8 22 -221
0 -221 0 0 -89 c0 -168 38 -302 121 -426 84 -126 199 -209 364 -264 217 -72
522 -69 747 7 128 43 212 95 304 186 123 123 178 252 191 448 12 186 -38 320
-166 449 -42 42 -88 84 -104 95 l-27 19 74 77 c80 83 152 209 181 318 25 92
30 224 11 319 -16 87 -68 210 -112 268 l-25 32 100 128 c79 100 98 131 88 140
-19 19 -401 313 -407 313 -3 0 -11 -10 -19 -21z m-385 -508 c95 -43 126 -166
66 -263 -51 -82 -164 -96 -236 -30 -89 83 -70 238 36 291 52 26 81 26 134 2z
m-276 -323 c53 -37 73 -71 78 -136 7 -98 -46 -171 -136 -188 -47 -9 -117 20
-149 63 -28 36 -42 117 -29 167 8 31 62 95 90 106 42 17 112 11 146 -12z m591
-2 c46 -32 73 -87 73 -151 0 -130 -124 -211 -233 -153 -117 63 -121 239 -7
309 46 28 122 25 167 -5z m-293 -313 c80 -60 101 -176 44 -252 -71 -96 -194
-95 -266 2 -17 23 -21 43 -21 101 0 63 3 77 27 108 15 19 42 42 60 52 42 21
120 16 156 -11z"/>
<path d="M6139 6479 c-182 -26 -363 -140 -468 -292 -49 -72 -108 -203 -132
-292 -30 -113 -37 -346 -15 -472 67 -383 317 -624 676 -649 168 -12 348 45
454 146 29 27 55 50 58 50 3 0 9 -28 12 -62 4 -35 10 -73 13 -85 l5 -23 264 0
264 0 0 825 0 825 -269 0 -269 0 -5 -22 c-3 -13 -8 -45 -12 -73 -10 -79 -13
-81 -45 -37 -92 127 -311 194 -531 161z m384 -519 c198 -93 238 -435 70 -604
-109 -110 -291 -117 -406 -16 -66 59 -100 141 -105 259 -6 117 9 185 55 253
44 66 82 97 147 120 67 24 173 19 239 -12z"/>
<path d="M9225 6480 c-127 -20 -240 -77 -326 -163 -33 -33 -61 -58 -63 -56 -1
2 -17 25 -35 51 -46 65 -130 124 -213 149 -58 18 -87 21 -171 17 -143 -7 -243
-52 -339 -153 l-45 -46 -18 85 -18 86 -243 0 -244 0 2 -822 3 -823 282 -3 282
-2 3 492 3 493 30 60 c38 76 85 114 152 121 90 11 150 -39 169 -141 4 -22 7
-260 8 -530 l1 -490 282 -3 282 -2 3 507 3 508 27 47 c71 121 220 131 286 19
l27 -46 3 -518 3 -517 287 2 287 3 3 415 c3 466 -7 684 -38 810 -55 225 -188
378 -380 434 -68 20 -215 28 -295 16z"/>
<path d="M10763 6476 c-211 -40 -400 -151 -510 -299 -59 -80 -117 -201 -145
-302 -18 -68 -21 -107 -21 -255 0 -148 3 -187 21 -255 104 -385 413 -597 867
-597 254 1 484 81 654 230 l45 39 -138 166 c-75 92 -141 167 -145 167 -5 0
-19 -8 -32 -19 -83 -65 -216 -104 -349 -104 -106 0 -165 16 -244 66 -42 27
-106 104 -106 129 0 4 240 8 534 8 l535 0 8 48 c4 26 8 119 8 207 0 137 -4
172 -23 240 -75 261 -266 444 -538 516 -102 27 -317 35 -421 15z m255 -441
c86 -11 162 -69 187 -141 l13 -39 -275 -3 c-152 -1 -278 0 -280 2 -8 7 24 71
51 103 45 53 168 98 241 87 11 -1 40 -5 63 -9z"/>
<path d="M13930 5853 c131 -329 280 -703 331 -831 l93 -232 284 2 284 3 309
810 c170 446 312 818 315 828 5 16 -12 17 -297 15 l-303 -3 -86 -240 c-47
-133 -116 -352 -155 -488 -38 -136 -72 -247 -75 -247 -3 0 -39 109 -80 243
-40 133 -114 353 -163 490 l-90 247 -302 0 -303 0 238 -597z"/>
<path d="M12095 5371 c-59 -17 -85 -31 -129 -71 -67 -62 -90 -117 -90 -220 -1
-74 3 -93 27 -142 59 -120 186 -180 332 -156 109 17 187 77 232 178 26 56 23
184 -5 246 -47 104 -143 165 -267 170 -38 2 -83 -1 -100 -5z"/>
<path d="M6390 4437 c-49 -16 -123 -93 -138 -143 -58 -195 84 -374 264 -334
122 27 185 109 186 240 2 176 -148 289 -312 237z m154 -146 c73 -76 26 -211
-74 -211 -76 0 -126 79 -101 159 24 82 119 110 175 52z"/>
<path d="M8797 4436 c-68 -25 -107 -78 -107 -147 0 -79 56 -127 173 -150 61
-11 78 -28 56 -55 -18 -22 -93 -14 -147 14 l-41 21 -29 -52 c-16 -29 -28 -55
-26 -59 12 -20 125 -50 190 -51 126 -1 194 55 194 160 0 46 -4 58 -32 88 -27
28 -48 39 -113 55 -90 23 -104 32 -85 55 17 21 85 19 136 -4 l41 -19 27 54 26
55 -47 20 c-62 27 -166 34 -216 15z"/>
<path d="M9679 4437 c-121 -45 -183 -179 -145 -311 31 -105 113 -168 221 -169
138 -1 236 102 235 247 -1 96 -48 179 -122 217 -52 26 -141 34 -189 16z m152
-146 c52 -52 39 -165 -22 -196 -48 -25 -87 -19 -125 19 -29 29 -34 41 -34 80
0 51 20 99 47 115 10 6 37 11 61 11 35 0 49 -6 73 -29z"/>
<path d="M10964 4440 c-77 -24 -125 -111 -104 -189 15 -56 56 -87 144 -106 85
-19 105 -34 81 -59 -23 -23 -82 -20 -141 8 l-50 23 -28 -49 c-33 -58 -28 -70
42 -92 121 -37 214 -26 274 33 67 67 59 174 -16 220 -17 11 -63 27 -103 36
-72 16 -94 34 -67 56 18 15 100 7 143 -14 l32 -16 22 47 c11 26 23 50 25 55 2
4 -17 17 -42 28 -53 23 -166 33 -212 19z"/>
<path d="M12957 4436 c-68 -25 -107 -78 -107 -147 0 -79 56 -127 173 -150 61
-11 78 -28 56 -55 -18 -22 -93 -14 -147 14 l-41 21 -29 -52 c-16 -29 -28 -55
-26 -59 12 -19 125 -50 189 -51 124 -2 195 56 195 160 0 46 -4 58 -32 88 -27
28 -48 39 -113 55 -90 23 -104 32 -85 55 17 21 85 19 136 -4 l41 -19 27 54 26
55 -47 20 c-62 27 -166 34 -216 15z"/>
<path d="M5680 4435 c0 -3 0 -110 -1 -237 l0 -233 58 0 58 0 0 137 c0 75 3
134 6 130 4 -4 19 -55 35 -114 l28 -108 67 0 66 0 28 108 c16 59 32 111 37
117 4 5 8 -55 8 -133 l0 -143 58 3 57 3 3 238 2 238 -86 -3 -87 -3 -43 -140
c-24 -77 -43 -138 -44 -135 -1 3 -20 66 -44 140 l-42 135 -82 3 c-45 2 -82 0
-82 -3z"/>
<path d="M6760 4211 c0 -127 1 -234 3 -238 1 -5 63 -8 137 -8 147 1 184 11
216 60 32 49 13 152 -31 169 -12 4 -9 11 10 32 35 37 41 84 19 130 -35 70 -58
79 -215 82 l-139 4 0 -231z"/>
<path d="M7190 4210 c0 -126 0 -233 0 -237 0 -5 26 -8 58 -8 l57 0 3 238 2
237 -60 0 -60 0 0 -230z"/>
<path d="M7370 4200 l0 -240 168 2 167 3 3 58 3 57 -111 0 -110 0 0 180 0 180
-60 0 -60 0 0 -240z"/>
<path d="M7750 4200 l0 -240 170 0 170 0 0 60 0 60 -110 0 -110 0 0 35 0 35
105 0 105 0 0 55 0 55 -105 0 -105 0 0 30 0 30 110 0 110 0 0 60 0 60 -170 0
-170 0 0 -240z"/>
<path d="M8282 4203 l3 -238 173 -3 172 -2 0 60 0 60 -116 0 -115 0 3 33 3 32
103 3 102 3 0 54 0 55 -105 0 -105 0 0 30 0 29 113 3 112 3 3 58 3 57 -176 0
-175 0 2 -237z"/>
<path d="M9120 4201 l0 -241 60 0 60 0 0 74 0 73 69 5 c87 6 129 30 159 88 40
77 20 161 -52 214 -24 18 -45 21 -162 24 l-134 4 0 -241z"/>
<path d="M10040 4200 l0 -240 60 0 60 0 0 86 c0 47 4 83 9 80 4 -3 30 -42 57
-86 l49 -80 67 0 c38 0 68 3 68 6 0 3 -25 42 -56 87 -31 45 -52 83 -47 84 34
12 77 49 89 78 34 82 7 166 -66 203 -39 19 -60 22 -167 22 l-123 0 0 -240z"/>
<path d="M10440 4380 l0 -60 60 0 60 0 2 -177 3 -178 58 0 59 0 -2 178 -1 177
66 0 65 0 0 60 0 60 -185 0 -185 0 0 -60z"/>
<path d="M11410 4200 l0 -240 165 0 165 0 0 60 0 60 -105 0 -105 0 0 180 0
180 -60 0 -60 0 0 -240z"/>
<path d="M11784 4427 c-2 -7 -3 -114 -2 -237 l3 -225 60 0 60 0 3 238 2 237
-60 0 c-40 0 -62 -4 -66 -13z"/>
<path d="M12022 4200 l81 -241 71 3 71 3 77 225 c42 124 77 231 77 238 1 8
-17 12 -58 12 l-60 0 -46 -147 c-62 -201 -60 -195 -73 -153 -6 19 -29 95 -52
168 l-41 132 -64 0 -64 0 81 -240z"/>
<path d="M12440 4200 l0 -240 175 0 175 0 0 60 0 60 -116 0 -115 0 3 33 3 32
103 3 102 3 0 54 0 55 -105 0 -105 0 0 30 0 29 113 3 112 3 3 58 3 57 -176 0
-175 0 0 -240z"/>
<path d="M13410 4200 l0 -241 58 3 57 3 3 88 3 87 79 0 80 0 0 -90 0 -90 60 0
60 0 0 240 0 240 -60 0 -60 0 0 -90 0 -90 -80 0 -80 0 0 90 0 90 -60 0 -60 0
0 -240z"/>
<path d="M13880 4200 l0 -240 170 0 170 0 0 60 0 60 -110 0 -110 0 0 35 0 35
105 0 105 0 0 55 0 55 -105 0 -105 0 0 30 0 30 110 0 110 0 0 60 0 60 -170 0
-170 0 0 -240z"/>
<path d="M14282 4203 l3 -238 59 0 59 0 -2 83 c-1 45 1 82 6 82 4 -1 31 -38
58 -83 l51 -82 72 -3 73 -3 -60 90 -60 89 28 12 c54 22 75 55 79 123 2 49 -1
69 -17 94 -38 60 -61 68 -213 71 l-138 4 2 -239z"/>
<path d="M14710 4200 l0 -240 173 2 172 3 3 58 3 57 -116 0 -115 0 0 35 0 35
105 0 105 0 0 55 0 55 -105 0 -105 0 0 30 0 29 113 3 112 3 3 58 3 57 -176 0
-175 0 0 -240z"/>
</g>
</svg>
