<?xml version="1.0" standalone="no"?>
<!DOCTYPE svg PUBLIC "-//W3C//DTD SVG 20010904//EN"
 "http://www.w3.org/TR/2001/REC-SVG-20010904/DTD/svg10.dtd">
<svg version="1.0" xmlns="http://www.w3.org/2000/svg"
 width="600.000000pt" height="600.000000pt" viewBox="0 0 600.000000 600.000000"
 preserveAspectRatio="xMidYMid meet">
<metadata>
Created by potrace 1.16, written by Peter Selinger 2001-2019
</metadata>
<g transform="translate(0.000000,600.000000) scale(0.100000,-0.100000)"
fill="#000000" stroke="none">
<path d="M2284 5291 c-250 -44 -474 -160 -651 -337 -121 -120 -229 -294 -242
-389 -6 -37 -11 -42 -74 -77 -98 -53 -182 -116 -263 -195 -100 -97 -137 -158
-175 -287 -26 -91 -31 -120 -27 -178 10 -131 106 -274 249 -370 l50 -33 -6
-245 c-7 -246 5 -667 25 -887 30 -325 77 -528 157 -673 54 -97 186 -224 298
-285 151 -83 223 -166 286 -329 46 -119 64 -150 117 -201 52 -51 112 -74 245
-95 156 -25 386 7 535 75 29 13 88 49 130 78 140 99 283 158 424 175 63 8 101
6 200 -10 178 -28 456 -35 576 -14 191 33 332 106 473 246 132 130 224 274
308 480 71 173 108 235 175 295 51 46 59 58 50 72 -54 86 -201 80 -359 -16
-44 -26 -105 -58 -136 -69 -73 -27 -206 -52 -276 -52 -64 0 -63 -14 -15 150
77 263 105 494 106 875 1 249 -2 295 -22 415 -42 241 -102 372 -226 488 -122
114 -257 136 -463 76 -21 -6 -23 -3 -23 39 0 73 -46 322 -83 452 -61 209 -126
340 -243 486 -117 147 -274 239 -511 300 -242 62 -417 73 -609 40z m131 -785
c95 -22 174 -61 187 -95 5 -14 10 -64 11 -111 2 -179 -83 -315 -246 -395 -86
-42 -265 -89 -401 -106 -122 -15 -372 -6 -476 16 -181 39 -470 158 -470 194 0
48 63 142 149 223 171 160 354 240 636 277 44 6 94 13 110 15 71 10 432 -3
500 -18z"/>
</g>
</svg>
